<?xml version="1.0" encoding="UTF-8" standalone="no"?>
<!-- Uploaded to: SVG Repo, www.svgrepo.com, Generator: SVG Repo Mixer Tools -->

<svg
    xmlns:inkscape="http://www.inkscape.org/namespaces/inkscape"
    xmlns:sodipodi="http://sodipodi.sourceforge.net/DTD/sodipodi-0.dtd"
    width="800px"
    height="800px"
    viewBox="0 0 48 48"
    version="1.1"
    id="svg20"
    sodipodi:docname="logo.svg"
    inkscape:version="1.2.2 (b0a8486541, 2022-12-01)"
    xmlns="http://www.w3.org/2000/svg"
>
    <sodipodi:namedview
        id="namedview22"
        pagecolor="#ffffff"
        bordercolor="#000000"
        borderopacity="0.25"
        inkscape:showpageshadow="2"
        inkscape:pageopacity="0.0"
        inkscape:pagecheckerboard="0"
        inkscape:deskcolor="#d1d1d1"
        showgrid="false"
        inkscape:zoom="0.834386"
        inkscape:cx="678.94236"
        inkscape:cy="402.09208"
        inkscape:window-width="1862"
        inkscape:window-height="1131"
        inkscape:window-x="58"
        inkscape:window-y="32"
        inkscape:window-maximized="1"
        inkscape:current-layer="svg20"/>
    <defs
        id="defs4">
        <style
            id="style2">.a{fill:none;stroke:#000000;stroke-linecap:round;stroke-linejoin:round;}
        </style>
    </defs>
    <path
        class="a"
        d="M14.7084,5.5H7.5a2,2,0,0,0-2,2v33a2,2,0,0,0,2,2H36.549M42.5,26.6859V7.5a2,2,0,0,0-2-2H28.4407"
        id="path6"/>
    <path
        class="a"
        d="M5.5,28.2709c.84,1.5719,2.194,1.6574,3.1171-.2075,3.8862,2.9378,8.1617,4.3005,13.0429,3.2126a64.9095,64.9095,0,0,1,9.5317,4.834c-.8845,1.6018-.7873,1.9333,1.56,3.2744a2.5336,2.5336,0,0,0,1.51.2889,25.4375,25.4375,0,0,0,3.1041,3.6617,1.7266,1.7266,0,0,0,2.6841-.1222c8.3281-8.4929,4.7554-16.2552,3.1194-16.5069-3.1992-.4922-4.3492,4.77-4.3492,4.77a4.893,4.893,0,0,0-1.6031,1.56c-1.1868-.6308-2.1958-1.9694-3.4379-1.7013-.6226.1457-1.1681,1.2916-1.1681,1.2916-1.8162-.9266-3.6329-1.8528-5.5944-2.6636a3.4357,3.4357,0,0,0,2.1545-3.5732,8.497,8.497,0,0,0,5.3981-.6086c4.4,2.3065,5.7215-2.9568.9106-1.9733,3.7628-2.394,3.3273-6.3011,1.9895-9.4218.7225-.9838,1.9977-2.2712-1.3186-2.4136.4048-3.0916,1.1592-4.4507-2.8966-3.0814C25.2824,2.1535,18.0623,1.7248,12.9563,3.79a16.3637,16.3637,0,0,0,3.0046,2.6911,15.97,15.97,0,0,0-9.8019,5.128c3.5819.6279,6.5314.9737,9.3761,1.7065a27.6237,27.6237,0,0,0-3.8558,2.1232c-3.2178,1.37-2.52,3.3007-2.7771,5.0947C7.9306,18.7261,7.0472,16.78,5.5,15.8782"
        id="path8"/>
    <path
        class="a"
        d="M25.9,25.6545a12.92,12.92,0,0,0-5.893-2.62c-.9679,1.2506-2.3253,1.1274-3.8838.2954a4.1245,4.1245,0,0,1-5.7186.8414c-1.0834-.8735-1.713-1.1914-1.9781-2.1247-.111-.3912-.3783-1.046.4754-1.5134-1.1374-2.1477.6225-3.4747,2.008-4.32.8024-.4895,2.1279-.0025,3.0634.3291a12.2682,12.2682,0,0,1,2.6644,1.7614c2.2761-.437,3.7467.2879,4.2092,2.4668a23.8855,23.8855,0,0,1,5.5194,3.7876"
        id="path10"/>
    <path
        class="a"
        d="M10.2965,24.0836a5.9477,5.9477,0,0,1-.26,1.0933c2.2429,2.2808,7.3522,3.7351,10.2088,3.7351a18.27,18.27,0,0,1,3.3239-4.71"
        id="path12"/>
    <path
        class="a"
        d="M15.9609,6.4809c3.4067-.3593,6.82-.6924,10.8665,1.4"
        id="path14"/>
    <path
        class="a"
        d="M15.5351,13.3154a77.488,77.488,0,0,1,7.8869,2.5212c-3.0086-.0405-5.9546.019-7.9867,1.54"
        id="path16"/>
    <path
        class="a"
        d="M36.31,8.6491a9.47,9.47,0,0,0-3.7984,3.4353"
        id="path18"/>
    <path
        style="fill:#ffcc00;stroke-width:1.19849"
        d="m 118.02261,698.07752 c -2.9818,-0.91928 -7.24122,-3.44347 -9.46537,-5.60933 -8.28964,-8.0724 -7.84865,-2.44117 -8.21949,-104.95951 l -0.33507,-92.63216 3.76576,1.94736 c 5.27088,2.72567 15.38176,3.55517 21.00125,1.72294 6.58178,-2.14598 14.14203,-7.59189 18.01043,-12.97354 l 3.30029,-4.5913 14.44928,9.47053 c 32.51409,21.3108 71.3818,36.9157 106.7327,42.85185 22.50703,3.7794 57.21236,3.52898 81.37607,-0.58718 l 11.75854,-2.00301 13.35701,5.69636 c 36.71986,15.65994 81.41326,38.04264 116.42679,58.30718 18.42205,10.66199 18.13348,10.37444 15.50737,15.45277 -3.19352,6.1756 -3.71559,18.80048 -1.01296,24.49585 2.98479,6.28999 9.60353,12.67315 20.55155,19.82011 14.65431,9.56643 25.3604,14.37678 33.67559,15.13079 l 7.33954,0.66552 6.45674,8.5245 c 3.5512,4.68848 8.73023,11.35593 11.50895,14.81656 l 5.05222,6.29206 -232.90786,-0.0834 c -195.64088,-0.0702 -233.77535,-0.35098 -238.32933,-1.75493 z"
        id="path453"
        transform="scale(0.06)"/>
    <path
        style="fill:#ffcc00;stroke-width:1.19849"
        d="m 605.80084,529.70777 c -16.1527,-11.97033 -24.31649,-15.78783 -35.26514,-16.49048 -12.74641,-0.81802 -19.98835,3.06982 -28.58792,15.34743 l -1.94882,2.78232 -28.50453,-13.84513 c -15.6775,-7.61482 -31.25786,-15.02242 -34.62301,-16.46134 l -6.11848,-2.6162 6.50602,-6.77118 c 7.61533,-7.9257 15.12134,-22.53438 17.03404,-33.15276 0.70455,-3.91127 1.28099,-7.14718 1.28099,-7.19092 0,-0.0437 9.03359,-0.0841 20.07464,-0.0896 21.95558,-0.0108 31.89274,-1.5418 50.00641,-7.70273 l 10.0889,-3.4315 10.55106,3.63976 c 21.38815,7.37817 41.47547,5.42759 53.54887,-5.19984 9.52097,-8.38069 12.91147,-17.90262 10.2802,-28.871 -2.58203,-10.76309 -17.06962,-22.54352 -27.72405,-22.54352 -3.09162,0 -2.74083,-1.30547 1.79376,-6.67557 9.9669,-11.80333 16.09595,-23.14661 20.80164,-38.49841 2.98645,-9.74298 3.24132,-12.21645 3.31054,-32.12837 0.0847,-24.38656 -1.25149,-32.79594 -8.80056,-55.38338 l -4.49065,-13.43636 5.02419,-7.21945 c 14.6824,-21.09778 7.67599,-36.55107 -18.61612,-41.05967 -4.61846,-0.79198 -8.38752,-2.00433 -8.37569,-2.69412 0.0118,-0.68978 0.81112,-6.37768 1.77622,-12.63977 2.03955,-13.2336 2.28435,-26.36465 0.60428,-32.41229 -1.33872,-4.81887 -7.34981,-11.16492 -12.36754,-13.05667 -7.14132,-2.69239 -20.90948,-1.36054 -38.40956,3.71548 l -8.22582,2.38596 -4.35829,-3.49878 C 542.3931,126.744 522.05432,111.52935 514.3108,106.26612 l -8.22913,-5.59329 h 86.46884 c 94.47409,0 91.16204,-0.23308 98.82746,6.95487 1.89583,1.77774 4.44575,5.38954 5.66649,8.02621 2.12452,4.58876 2.22065,11.56638 2.24584,163.02704 l 0.0264,158.23308 -8.00615,3.48786 c -19.15954,8.34679 -35.93199,30.9754 -47.63504,64.26692 -4.75628,13.5301 -5.06978,14.04463 -12.14011,19.92461 -3.99178,3.31973 -8.676,7.72132 -10.40938,9.78134 -1.7334,2.06002 -3.33651,3.74549 -3.56249,3.74549 -0.22597,0 -5.51915,-3.78561 -11.76261,-8.41248 z"
        id="path455"
        transform="scale(0.06)"/>
    <path
        style="fill:#ffcc00;stroke-width:1.19849"
        d="m 100.28313,150.91887 c 0.36581,-29.72816 0.54785,-31.96338 2.96966,-36.46345 3.23831,-6.01726 6.99779,-9.55407 12.6786,-11.92766 3.81002,-1.59193 13.10128,-1.85493 65.53002,-1.85493 33.59981,0 61.36663,0.4467 61.70406,0.99266 0.33742,0.54597 -3.54081,1.96776 -8.61829,3.15954 -44.46859,10.43759 -89.31623,35.02692 -124.67616,68.35818 l -9.977589,9.40516 z"
        id="path457"
        transform="scale(0.06)"/>
    <path
        style="fill:#ffcc00;stroke-width:1.19849"
        d="m 130.26844,291.74887 c -6.98271,-10.93412 -19.23562,-24.82347 -25.90768,-29.3678 l -4.27079,-2.90884 -0.008,-28.46404 c -0.005,-18.38139 0.42084,-28.46404 1.20299,-28.46404 2.60067,0 117.22448,19.30623 123.43137,20.7897 l 6.59167,1.57543 -4.05917,2.3004 c -2.23256,1.26522 -11.40098,6.65314 -20.37427,11.97315 -8.9733,5.32002 -20.83,12.0615 -26.34824,14.98108 -13.4112,7.09558 -23.43504,16.55482 -33.66031,31.76436 -4.64237,6.90529 -8.44068,13.04899 -8.44068,13.65267 0,3.423 -2.50522,1.01748 -8.1567,-7.83207 z"
        id="path459"
        transform="scale(0.06)"/>
    <path
        style="fill:#ffcc00;stroke-width:1.19849"
        d="m 302.01849,469.26691 c -42.30361,-7.47118 -81.94098,-22.36603 -110.29569,-41.4467 -7.83266,-5.27081 -12.69809,-9.54857 -10.86034,-9.54857 0.43108,0 4.04555,1.09881 8.03215,2.44179 26.49297,8.92484 56.74303,2.62832 77.51034,-16.13369 l 4.45955,-4.02893 10.78305,3.64798 c 14.89339,5.03853 29.09627,5.22879 39.36559,0.52734 3.83828,-1.75722 9.11444,-4.88649 11.7248,-6.95394 4.20343,-3.32918 5.32225,-3.66739 9.78457,-2.95783 6.18128,0.98288 34.40199,10.26439 34.39971,11.31371 -9.2e-4,0.41687 -3.80622,5.34216 -8.45625,10.94508 -9.91861,11.95118 -22.20793,29.90658 -30.55028,44.6357 l -5.93505,10.47885 -7.19091,-0.0846 c -3.95501,-0.0465 -14.20206,-1.32281 -22.77124,-2.8362 z"
        id="path461"
        transform="scale(0.06)"/>
</svg>
